<?xml version="1.0" encoding="UTF-8"?>
<svg width="20px" height="20px" viewBox="0 0 20 20" version="1.1" xmlns="http://www.w3.org/2000/svg" xmlns:xlink="http://www.w3.org/1999/xlink">
    <!-- Generator: Sketch 48.2 (47327) - http://www.bohemiancoding.com/sketch -->
    <title>instagram_s</title>
    <desc>Created with Sketch.</desc>
    <defs></defs>
    <g id="UI-Kit" stroke="none" stroke-width="1" fill="none" fill-rule="evenodd" transform="translate(-737.000000, -1993.000000)">
        <path d="M742.527787,1999 L737,1999 L737,1996 C737,1994.695 737.835041,1993.5812 739,1993.16969 L739,1997 L740,1997 L741,1997 L741,1993 L742,1993 L742,1997 L743,1997 L743,1993 L754.005798,1993 C755.656688,1993 757,1994.34315 757,1996 L757,1999 L751.472213,1999 C750.373572,1997.7725 748.777,1997 747,1997 C745.223,1997 743.626428,1997.7725 742.527787,1999 Z M741.802693,2000 C741.292183,2000.88252 741,2001.90714 741,2003 C741,2006.31371 743.686291,2009 747,2009 C750.313709,2009 753,2006.31371 753,2003 C753,2001.90714 752.707817,2000.88252 752.197307,2000 L757,2000 L757,2006.99469 C757,2010.30639 754.313413,2013 750.999341,2013 L743.000659,2013 C739.676536,2013 737,2010.31133 737,2006.99469 L737,2000 L741.802693,2000 Z M752.998957,1994 C752.447248,1994 752,1994.44266 752,1994.99896 L752,1996.00104 C752,1996.55275 752.44266,1997 752.998957,1997 L754.001043,1997 C754.552752,1997 755,1996.55734 755,1996.00104 L755,1994.99896 C755,1994.44725 754.55734,1994 754.001043,1994 L752.998957,1994 Z M747,2007 C744.790861,2007 743,2005.20914 743,2003 C743,2000.79086 744.790861,1999 747,1999 C749.209139,1999 751,2000.79086 751,2003 C751,2005.20914 749.209139,2007 747,2007 Z" id="instagram_s" fill="#000000"></path>
    </g>
</svg>